<svg width="120" height="120" viewBox="0 0 120 120" fill="none" xmlns="http://www.w3.org/2000/svg">
<path d="M107.799 13.6475C108.327 13.3456 108.969 13.3288 109.51 13.5957L109.618 13.6523L109.72 13.7168C110.221 14.0534 110.525 14.6199 110.525 15.2285V101.589C110.525 105.813 107.088 109.25 102.864 109.25C100.66 109.25 98.5623 108.299 97.1079 106.644C95.6537 104.988 94.9814 102.785 95.2661 100.6L98.9556 72.2666C93.983 69.0075 90.9409 63.4344 90.9409 57.4346V44.3027C90.9409 35.0107 93.188 28.4641 96.4292 23.6768C99.6686 18.8923 103.888 15.8845 107.799 13.6475ZM106.882 18.4922C103.715 20.6182 100.702 23.3443 98.4517 27.2861C96.11 31.3884 94.5835 36.8246 94.5835 44.3027V57.4346C94.5835 62.536 97.3494 67.2519 101.803 69.7393C102.453 70.1021 102.817 70.8255 102.721 71.5635L98.8784 101.069C98.729 102.216 99.0815 103.372 99.8442 104.241L99.9907 104.399C100.745 105.17 101.78 105.607 102.864 105.607C105.08 105.607 106.882 103.804 106.882 101.589V18.4922Z" fill="#161616" stroke="#161616" stroke-width="0.5"/>
<path d="M63.1553 10.8021C76.2479 10.8022 88.5585 16.4881 97.0293 26.4232L97.4297 26.8998L97.542 27.0492C98.0561 27.8163 97.9155 28.8624 97.1895 29.4642C96.8497 29.7467 96.4376 29.8842 96.0283 29.8842C95.5054 29.8841 94.9852 29.66 94.625 29.226C86.8386 19.8323 75.3688 14.4447 63.1553 14.4447C52.8679 14.4447 43.03 18.2841 35.4531 25.2562C34.7119 25.937 33.5594 25.8897 32.8789 25.1478V25.1469C32.1986 24.4069 32.2469 23.2554 32.9863 22.5746C41.2377 14.9836 51.9522 10.8021 63.1553 10.8021Z" fill="#161616" stroke="#161616" stroke-width="0.5"/>
<path d="M98.7627 75.4862C99.2996 74.7356 100.328 74.4972 101.146 74.9657L101.304 75.0663C102.055 75.6023 102.291 76.6318 101.824 77.4501C93.9128 91.2964 79.0963 99.8973 63.1553 99.8973C48.7712 99.8973 35.214 92.906 26.8896 81.1932C26.3065 80.3732 26.4999 79.2372 27.3184 78.6542L27.4756 78.5536C28.2798 78.0956 29.3132 78.3155 29.8584 79.0839C37.5012 89.8359 49.9486 96.2548 63.1553 96.2548C77.7921 96.2547 91.3974 88.3567 98.6621 75.6434L98.7627 75.4862Z" fill="#161616" stroke="#161616" stroke-width="0.5"/>
<path d="M63.1497 31.2922C76.4126 31.2922 87.2024 42.0828 87.2024 55.345C87.2024 68.6071 76.4126 79.3977 63.1497 79.3977C49.8875 79.3976 39.0979 68.6071 39.0979 55.345C39.0979 42.0828 49.8875 31.2923 63.1497 31.2922ZM63.1497 34.9348C51.8959 34.9349 42.7405 44.0911 42.7405 55.345C42.7405 66.5988 51.8959 75.7551 63.1497 75.7551C74.4035 75.7551 83.5598 66.5988 83.5598 55.345C83.5598 44.0911 74.4035 34.9348 63.1497 34.9348Z" fill="#161616" stroke="#161616" stroke-width="0.5"/>
<path d="M34.2241 10.75C35.2297 10.75 36.0454 11.5647 36.0454 12.5713V31.2275C36.0454 38.5537 30.0856 44.5127 22.7603 44.5127C15.4349 44.5127 9.4751 38.5537 9.4751 31.2275V12.5713C9.4751 11.5647 10.2908 10.75 11.2964 10.75C12.3019 10.7501 13.1177 11.5648 13.1177 12.5713V31.2275C13.1177 36.5438 17.4432 40.8711 22.7603 40.8711C28.0773 40.8711 32.4028 36.5438 32.4028 31.2275V12.5713C32.4028 11.5648 33.2186 10.7501 34.2241 10.75Z" fill="#161616" stroke="#161616" stroke-width="0.5"/>
<path d="M22.7605 10.75C23.766 10.7501 24.5818 11.5648 24.5818 12.5713V31.415C24.5818 32.4215 23.766 33.2362 22.7605 33.2363C21.7549 33.2363 20.9392 32.4216 20.9392 31.415V12.5713L20.949 12.3848C21.0423 11.4659 21.8177 10.75 22.7605 10.75Z" fill="#161616" stroke="#161616" stroke-width="0.5"/>
<path d="M26.4348 40.1575C27.4254 40.0818 28.2992 40.8877 28.3479 41.8879L31.1575 100.441C31.2612 102.613 30.547 104.686 29.1379 106.32L28.8469 106.641C27.2463 108.321 25.0846 109.247 22.7639 109.247C20.4441 109.247 18.2834 108.322 16.6829 106.643C15.0814 104.964 14.2605 102.761 14.3704 100.444L17.1643 41.8879C17.2135 40.8787 18.0697 40.1382 19.0627 40.1555H19.0706V40.1565C20.0745 40.2045 20.851 41.058 20.803 42.0627L18.009 100.617C17.9463 101.93 18.4108 103.177 19.3186 104.129C21.1301 106.029 24.3999 106.027 26.2102 104.128C27.1181 103.176 27.5822 101.929 27.5188 100.615L24.7102 42.0627C24.6623 41.0604 25.4335 40.2092 26.4348 40.1575Z" fill="#161616" stroke="#161616" stroke-width="0.5"/>
</svg>
