<svg width="120" height="120" viewBox="0 0 120 120" fill="none" xmlns="http://www.w3.org/2000/svg">
<path d="M102.409 6.31165H98.6765C97.6265 6.39158 96.6348 6.82528 95.8633 7.54185C95.0918 8.25842 94.5862 9.21549 94.4291 10.2566H63.1045C59.8337 10.2589 56.6143 11.0714 53.7341 12.6215L40.9444 19.5191H20.6809C19.0058 19.521 17.3999 20.1873 16.2155 21.3717C15.031 22.5562 14.3648 24.1621 14.3628 25.8371V27.7313C14.3649 28.9878 14.7414 30.2152 15.4442 31.2568C16.147 32.2984 17.1443 33.1069 18.3087 33.5792C16.734 39.9218 10.6028 56.3045 11.0247 62.7885L11.0248 103.538C11.0264 105.029 11.6196 106.459 12.6741 107.514C13.7286 108.568 15.1584 109.161 16.6498 109.163L87.5675 109.177C88.065 109.166 88.5392 108.963 88.8911 108.612C89.243 108.26 89.4455 107.785 89.4562 107.288V60.0934C89.4564 59.9133 89.4305 59.7341 89.3794 59.5615L81.9831 34.5685C83.9741 34.2107 85.8103 33.2586 87.2499 31.8374C88.6895 30.4162 89.6652 28.5924 90.0485 26.6061H94.2473C94.1897 27.8689 94.6158 29.106 95.4388 30.0655C96.2618 31.0249 97.4197 31.6344 98.6765 31.7697H102.409C104.913 31.7697 106.875 29.2987 106.875 26.1447V11.9366C106.875 8.78265 104.913 6.31165 102.409 6.31165ZM18.1128 27.7313V25.8371C18.1135 25.1562 18.3843 24.5034 18.8657 24.022C19.3472 23.5405 20 23.2697 20.6809 23.2691H65.604L58.5855 30.3003H20.6809C19.9999 30.2994 19.347 30.0284 18.8656 29.5468C18.3841 29.0652 18.1134 28.4122 18.1128 27.7313ZM14.7748 103.538C15.1534 97.4248 13.7017 59.8202 15.9379 54.7742L22.0811 34.0503H56.0303C55.5191 35.6203 55.5214 37.3124 56.0367 38.881C56.5521 40.4497 57.5537 41.8134 58.8964 42.7744C60.2391 43.7353 61.853 44.2436 63.5041 44.2255C65.1551 44.2073 66.7575 43.6637 68.0787 42.6734L74.5868 37.7045L68.9329 58.7064C68.8989 59.5894 68.8227 104.614 68.869 105.414L16.6498 105.413C16.1527 105.412 15.6761 105.215 15.3247 104.863C14.9732 104.512 14.7754 104.035 14.7748 103.538ZM79.1455 101.522L83.0365 105.413H75.2631L79.1455 101.522ZM85.7061 60.3653V102.78L81.0378 98.1115V62.3813C81.028 61.8905 80.8262 61.4231 80.4756 61.0795C80.1251 60.7359 79.6537 60.5434 79.1628 60.5434C78.672 60.5434 78.2007 60.7359 77.8501 61.0795C77.4995 61.4231 77.2977 61.8905 77.2878 62.3813V98.0735L72.6187 102.754V59.4415L78.7226 36.7676L85.7061 60.3653ZM94.2114 22.8561H88.3501C87.8529 22.8561 87.376 23.0537 87.0243 23.4053C86.6727 23.7569 86.4752 24.2338 86.4751 24.7311C86.4734 26.3866 85.815 27.9737 84.6444 29.1443C83.4738 30.3149 81.8867 30.9733 80.2312 30.975C80.0683 31.0006 77.6555 30.9331 77.5857 31.0117C77.4895 30.4401 66.1051 39.5903 65.8024 39.6925C64.9912 40.2943 63.9832 40.5686 62.9789 40.4608C61.9747 40.353 61.0478 39.871 60.3828 39.1108C59.7178 38.3506 59.3634 37.3678 59.3902 36.3581C59.417 35.3484 59.823 34.3859 60.5274 33.662L71.4513 22.7188C71.7075 22.4543 71.8808 22.1206 71.9497 21.7589C72.0186 21.3972 71.9801 21.0232 71.8391 20.6831C71.6981 20.3429 71.4606 20.0515 71.156 19.8446C70.8513 19.6378 70.4928 19.5246 70.1246 19.519H48.8458C52.9269 17.4422 58.316 13.6765 63.1045 14.0069L94.2114 14.0066L94.2114 22.8561ZM103.125 26.1447C103.163 26.4916 103.118 26.8426 102.993 27.1686C102.869 27.4946 102.668 27.7863 102.409 28.0197L98.6874 28.0206C98.4243 27.7895 98.2209 27.4983 98.0945 27.1717C97.9681 26.8451 97.9224 26.4928 97.9614 26.1447V12.1679C97.8537 11.1623 98.4797 10.0275 98.6839 10.0616L102.398 10.0607C102.662 10.2913 102.866 10.5825 102.992 10.9092C103.119 11.2359 103.165 11.5885 103.125 11.9366V26.1447Z" fill="#161616"/>
</svg>
